<svg width="945" height="444" viewBox="0 0 945 444" fill="none" xmlns="http://www.w3.org/2000/svg">
<line x1="410.639" y1="338" x2="410.639" y2="106" stroke="black" stroke-width="3"/>
<path d="M492.018 187.484C497.226 187.484 501.318 186.492 504.294 184.508C507.27 182.524 508.758 179.548 508.758 175.58V175.332C508.758 171.612 507.27 168.76 504.294 166.776C501.401 164.709 496.937 163.676 490.902 163.676H466.722V187.484H492.018ZM487.554 150.78C492.514 150.78 496.482 149.829 499.458 147.928C502.434 145.944 503.922 142.968 503.922 139V138.752C503.922 135.28 502.6 132.593 499.954 130.692C497.392 128.708 493.63 127.716 488.67 127.716H466.722V150.78H487.554ZM451.718 114.2H490.654C500.657 114.2 508.221 116.763 513.346 121.888C517.232 125.773 519.174 130.568 519.174 136.272V136.52C519.174 139.165 518.802 141.521 518.058 143.588C517.397 145.572 516.488 147.349 515.33 148.92C514.256 150.408 512.933 151.731 511.362 152.888C509.874 154.045 508.345 155.037 506.774 155.864C509.337 156.773 511.652 157.848 513.718 159.088C515.868 160.245 517.686 161.651 519.174 163.304C520.745 164.957 521.944 166.9 522.77 169.132C523.597 171.364 524.01 173.968 524.01 176.944V177.192C524.01 181.077 523.225 184.508 521.654 187.484C520.166 190.46 518.017 192.94 515.206 194.924C512.396 196.908 509.006 198.437 505.038 199.512C501.07 200.504 496.689 201 491.894 201H451.718V114.2ZM559.559 202.364C552.119 202.364 546.373 200.091 542.323 195.544C538.272 190.997 536.247 184.88 536.247 177.192V135.528H551.251V172.728C551.251 177.853 552.449 181.821 554.847 184.632C557.327 187.36 560.799 188.724 565.263 188.724C569.644 188.724 573.199 187.319 575.927 184.508C578.655 181.615 580.019 177.605 580.019 172.48V135.528H595.023V201H580.019V190.832C577.869 193.973 575.183 196.701 571.959 199.016C568.735 201.248 564.601 202.364 559.559 202.364ZM611.405 135.528H626.409V145.448C627.484 143.96 628.641 142.555 629.881 141.232C631.121 139.909 632.526 138.711 634.097 137.636C635.75 136.561 637.569 135.735 639.553 135.156C641.62 134.495 643.893 134.164 646.373 134.164C651.085 134.164 655.053 135.239 658.277 137.388C661.584 139.455 664.105 142.224 665.841 145.696C668.486 142.224 671.586 139.455 675.141 137.388C678.778 135.239 683.077 134.164 688.037 134.164C695.229 134.164 700.85 136.355 704.901 140.736C708.952 145.035 710.977 151.193 710.977 159.212V201H695.973V163.8C695.973 158.592 694.816 154.624 692.501 151.896C690.186 149.168 686.921 147.804 682.705 147.804C678.572 147.804 675.182 149.209 672.537 152.02C669.974 154.748 668.693 158.757 668.693 164.048V201H653.689V163.676C653.689 158.551 652.532 154.624 650.217 151.896C647.902 149.168 644.637 147.804 640.421 147.804C636.205 147.804 632.816 149.251 630.253 152.144C627.69 155.037 626.409 159.047 626.409 164.172V201H611.405V135.528ZM760.477 189.344C763.04 189.344 765.437 188.848 767.669 187.856C769.984 186.864 771.968 185.5 773.621 183.764C775.357 181.945 776.721 179.755 777.713 177.192C778.705 174.547 779.201 171.612 779.201 168.388V168.14C779.201 164.999 778.705 162.147 777.713 159.584C776.721 156.939 775.357 154.707 773.621 152.888C771.968 151.069 769.984 149.664 767.669 148.672C765.437 147.68 763.04 147.184 760.477 147.184C757.915 147.184 755.476 147.68 753.161 148.672C750.847 149.664 748.821 151.111 747.085 153.012C745.349 154.831 743.944 157.021 742.869 159.584C741.877 162.147 741.381 164.999 741.381 168.14V168.388C741.381 171.529 741.877 174.423 742.869 177.068C743.944 179.631 745.349 181.821 747.085 183.64C748.821 185.459 750.847 186.864 753.161 187.856C755.476 188.848 757.915 189.344 760.477 189.344ZM763.949 202.364C758.576 202.364 754.112 201.207 750.557 198.892C747.003 196.577 744.068 193.891 741.753 190.832V201H726.749V110.48H741.753V146.44C744.151 142.968 747.127 140.075 750.681 137.76C754.236 135.363 758.659 134.164 763.949 134.164C767.835 134.164 771.596 134.908 775.233 136.396C778.871 137.884 782.095 140.075 784.905 142.968C787.799 145.861 790.113 149.416 791.849 153.632C793.585 157.848 794.453 162.684 794.453 168.14V168.388C794.453 173.844 793.585 178.68 791.849 182.896C790.196 187.112 787.923 190.667 785.029 193.56C782.219 196.453 778.953 198.644 775.233 200.132C771.596 201.62 767.835 202.364 763.949 202.364ZM808.208 110.48H823.212V201H808.208V110.48ZM885.228 163.676C884.98 161.279 884.443 159.047 883.616 156.98C882.789 154.831 881.673 153.012 880.268 151.524C878.863 149.953 877.168 148.713 875.184 147.804C873.283 146.895 871.092 146.44 868.612 146.44C863.983 146.44 860.139 148.052 857.08 151.276C854.104 154.417 852.285 158.551 851.624 163.676H885.228ZM870.348 202.488C865.636 202.488 861.213 201.661 857.08 200.008C853.029 198.355 849.475 196.04 846.416 193.064C843.44 190.088 841.084 186.533 839.348 182.4C837.612 178.184 836.744 173.555 836.744 168.512V168.264C836.744 163.552 837.529 159.129 839.1 154.996C840.671 150.863 842.861 147.267 845.672 144.208C848.565 141.067 851.955 138.628 855.84 136.892C859.725 135.073 864.024 134.164 868.736 134.164C873.944 134.164 878.491 135.115 882.376 137.016C886.344 138.917 889.609 141.48 892.172 144.704C894.817 147.928 896.801 151.689 898.124 155.988C899.447 160.204 900.108 164.668 900.108 169.38C900.108 170.041 900.067 170.744 899.984 171.488C899.984 172.149 899.943 172.852 899.86 173.596H851.748C852.575 178.969 854.683 183.103 858.072 185.996C861.544 188.807 865.719 190.212 870.596 190.212C874.316 190.212 877.54 189.551 880.268 188.228C882.996 186.905 885.683 184.963 888.328 182.4L897.132 190.212C893.991 193.932 890.229 196.908 885.848 199.14C881.549 201.372 876.383 202.488 870.348 202.488ZM492.018 311.484C497.226 311.484 501.318 310.492 504.294 308.508C507.27 306.524 508.758 303.548 508.758 299.58V299.332C508.758 295.612 507.27 292.76 504.294 290.776C501.401 288.709 496.937 287.676 490.902 287.676H466.722V311.484H492.018ZM487.554 274.78C492.514 274.78 496.482 273.829 499.458 271.928C502.434 269.944 503.922 266.968 503.922 263V262.752C503.922 259.28 502.6 256.593 499.954 254.692C497.392 252.708 493.63 251.716 488.67 251.716H466.722V274.78H487.554ZM451.718 238.2H490.654C500.657 238.2 508.221 240.763 513.346 245.888C517.232 249.773 519.174 254.568 519.174 260.272V260.52C519.174 263.165 518.802 265.521 518.058 267.588C517.397 269.572 516.488 271.349 515.33 272.92C514.256 274.408 512.933 275.731 511.362 276.888C509.874 278.045 508.345 279.037 506.774 279.864C509.337 280.773 511.652 281.848 513.718 283.088C515.868 284.245 517.686 285.651 519.174 287.304C520.745 288.957 521.944 290.9 522.77 293.132C523.597 295.364 524.01 297.968 524.01 300.944V301.192C524.01 305.077 523.225 308.508 521.654 311.484C520.166 314.46 518.017 316.94 515.206 318.924C512.396 320.908 509.006 322.437 505.038 323.512C501.07 324.504 496.689 325 491.894 325H451.718V238.2ZM581.879 287.676C581.631 285.279 581.093 283.047 580.267 280.98C579.44 278.831 578.324 277.012 576.919 275.524C575.513 273.953 573.819 272.713 571.835 271.804C569.933 270.895 567.743 270.44 565.263 270.44C560.633 270.44 556.789 272.052 553.731 275.276C550.755 278.417 548.936 282.551 548.275 287.676H581.879ZM566.999 326.488C562.287 326.488 557.864 325.661 553.731 324.008C549.68 322.355 546.125 320.04 543.067 317.064C540.091 314.088 537.735 310.533 535.999 306.4C534.263 302.184 533.395 297.555 533.395 292.512V292.264C533.395 287.552 534.18 283.129 535.751 278.996C537.321 274.863 539.512 271.267 542.323 268.208C545.216 265.067 548.605 262.628 552.491 260.892C556.376 259.073 560.675 258.164 565.387 258.164C570.595 258.164 575.141 259.115 579.027 261.016C582.995 262.917 586.26 265.48 588.823 268.704C591.468 271.928 593.452 275.689 594.775 279.988C596.097 284.204 596.759 288.668 596.759 293.38C596.759 294.041 596.717 294.744 596.635 295.488C596.635 296.149 596.593 296.852 596.511 297.596H548.399C549.225 302.969 551.333 307.103 554.723 309.996C558.195 312.807 562.369 314.212 567.247 314.212C570.967 314.212 574.191 313.551 576.919 312.228C579.647 310.905 582.333 308.963 584.979 306.4L593.783 314.212C590.641 317.932 586.88 320.908 582.499 323.14C578.2 325.372 573.033 326.488 566.999 326.488ZM654.235 287.676C653.987 285.279 653.449 283.047 652.623 280.98C651.796 278.831 650.68 277.012 649.275 275.524C647.869 273.953 646.175 272.713 644.191 271.804C642.289 270.895 640.099 270.44 637.619 270.44C632.989 270.44 629.145 272.052 626.087 275.276C623.111 278.417 621.292 282.551 620.631 287.676H654.235ZM639.355 326.488C634.643 326.488 630.22 325.661 626.087 324.008C622.036 322.355 618.481 320.04 615.423 317.064C612.447 314.088 610.091 310.533 608.355 306.4C606.619 302.184 605.751 297.555 605.751 292.512V292.264C605.751 287.552 606.536 283.129 608.107 278.996C609.677 274.863 611.868 271.267 614.679 268.208C617.572 265.067 620.961 262.628 624.847 260.892C628.732 259.073 633.031 258.164 637.743 258.164C642.951 258.164 647.497 259.115 651.383 261.016C655.351 262.917 658.616 265.48 661.179 268.704C663.824 271.928 665.808 275.689 667.131 279.988C668.453 284.204 669.115 288.668 669.115 293.38C669.115 294.041 669.073 294.744 668.991 295.488C668.991 296.149 668.949 296.852 668.867 297.596H620.755C621.581 302.969 623.689 307.103 627.079 309.996C630.551 312.807 634.725 314.212 639.603 314.212C643.323 314.212 646.547 313.551 649.275 312.228C652.003 310.905 654.689 308.963 657.335 306.4L666.139 314.212C662.997 317.932 659.236 320.908 654.855 323.14C650.556 325.372 645.389 326.488 639.355 326.488ZM704.146 326.24C699.434 326.24 694.64 325.413 689.762 323.76C684.968 322.107 680.504 319.668 676.37 316.444L683.066 306.276C686.621 308.921 690.217 310.947 693.854 312.352C697.574 313.675 701.129 314.336 704.518 314.336C707.742 314.336 710.222 313.716 711.958 312.476C713.777 311.153 714.686 309.417 714.686 307.268V307.02C714.686 305.78 714.273 304.705 713.446 303.796C712.702 302.887 711.628 302.101 710.222 301.44C708.9 300.779 707.329 300.159 705.51 299.58C703.774 299.001 701.956 298.423 700.054 297.844C697.657 297.183 695.218 296.397 692.738 295.488C690.341 294.579 688.15 293.421 686.166 292.016C684.265 290.528 682.694 288.709 681.454 286.56C680.214 284.411 679.594 281.765 679.594 278.624V278.376C679.594 275.317 680.173 272.548 681.33 270.068C682.57 267.588 684.224 265.48 686.29 263.744C688.44 262.008 690.92 260.685 693.73 259.776C696.624 258.867 699.682 258.412 702.906 258.412C707.04 258.412 711.214 259.073 715.43 260.396C719.646 261.719 723.49 263.537 726.962 265.852L721.01 276.516C717.869 274.615 714.686 273.127 711.462 272.052C708.238 270.895 705.262 270.316 702.534 270.316C699.641 270.316 697.368 270.936 695.714 272.176C694.144 273.416 693.358 274.987 693.358 276.888V277.136C693.358 278.293 693.772 279.327 694.598 280.236C695.425 281.063 696.5 281.848 697.822 282.592C699.228 283.253 700.798 283.915 702.534 284.576C704.353 285.155 706.213 285.733 708.114 286.312C710.512 287.056 712.909 287.924 715.306 288.916C717.704 289.908 719.853 291.148 721.754 292.636C723.738 294.041 725.35 295.777 726.59 297.844C727.83 299.911 728.45 302.432 728.45 305.408V305.656C728.45 309.128 727.83 312.145 726.59 314.708C725.35 317.271 723.614 319.42 721.382 321.156C719.233 322.809 716.67 324.091 713.694 325C710.718 325.827 707.536 326.24 704.146 326.24Z" fill="black"/>
<path d="M198.192 120.61C182.755 120.61 169.639 136.644 164.954 158.93C176.56 165.619 187.668 173.115 198.192 181.36C208.711 173.114 219.814 165.618 231.416 158.93C226.73 136.644 213.614 120.61 198.192 120.61Z" fill="#F0B625"/>
<path d="M232.062 103.115C235.712 100.447 239.931 98.6357 244.4 97.8187V97.8187C242.794 100.306 241.939 103.192 241.932 106.139C241.925 109.077 242.751 111.959 244.318 114.458C245.884 116.958 248.129 118.976 250.798 120.285C253.468 121.595 256.455 122.143 259.424 121.868C262.393 121.593 265.224 120.506 267.599 118.729C269.974 116.953 271.797 114.558 272.864 111.814C273.93 109.071 274.197 106.088 273.634 103.203C273.071 100.318 271.701 97.6458 269.678 95.4874C267.655 93.329 265.06 91.7707 262.186 90.9884V90.9884C256.319 89.0601 250.065 88.5545 243.957 89.5142C237.849 90.474 232.065 92.871 227.098 96.5018C220.46 101.474 215.313 108.125 212.204 115.748C214.755 117.035 217.15 118.603 219.342 120.422C221.816 113.574 226.23 107.568 232.062 103.115V103.115Z" fill="#050505"/>
<path d="M138.34 121.898C142.579 121.895 146.644 120.233 149.641 117.278C152.637 114.323 154.32 110.316 154.32 106.139C154.314 103.192 153.458 100.306 151.853 97.8187V97.8187C156.321 98.6356 160.541 100.447 164.19 103.115C170.028 107.544 174.452 113.531 176.939 120.364C179.134 118.549 181.528 116.981 184.077 115.69C180.973 108.064 175.826 101.412 169.184 96.4439C164.225 92.8248 158.454 90.4345 152.36 89.4749C146.265 88.5153 140.026 89.0146 134.169 90.9305V90.9305C130.415 91.9069 127.152 94.1985 124.991 97.3757C122.829 100.553 121.918 104.398 122.428 108.189C122.938 111.981 124.834 115.459 127.76 117.972C130.687 120.485 134.443 121.861 138.325 121.84L138.34 121.898Z" fill="#050505"/>
<g style="mix-blend-mode:overlay">
<path d="M198.192 120.61V181.389C208.711 173.143 219.814 165.647 231.416 158.959C226.73 136.644 213.614 120.61 198.192 120.61Z" fill="black"/>
</g>
<path d="M242.064 234.844C241.441 229.454 240.108 224.166 238.099 219.114C236.345 214.587 233.865 210.366 230.755 206.612C223.147 197.408 212.087 192.141 198.207 192.141C184.327 192.141 173.238 197.365 165.644 206.612C162.539 210.369 160.06 214.59 158.3 219.114C156.298 224.168 154.965 229.455 154.335 234.844C153.781 238.988 153.56 243.169 153.674 247.347C153.77 252.619 154.261 257.877 155.143 263.077C155.774 267.144 156.611 271.297 157.757 275.58C159.108 280.689 160.695 285.913 162.751 291.31C164.22 295.405 166.012 299.559 167.936 303.813C170.256 308.974 172.91 314.218 175.896 319.543C178.188 323.667 180.684 327.821 183.402 332.046C187.808 338.949 192.743 345.938 198.251 353C203.744 345.938 208.689 338.954 213.085 332.046C215.803 327.821 218.3 323.667 220.606 319.543C223.543 314.218 226.197 308.974 228.566 303.813C230.49 299.559 232.209 295.405 233.751 291.31C235.734 285.913 237.394 280.689 238.73 275.58C239.817 271.239 240.713 267.144 241.359 263.077C242.233 257.876 242.724 252.619 242.828 247.347C242.901 243.167 242.645 238.986 242.064 234.844Z" fill="#F0B625"/>
<path d="M54.0181 129.452C-20.5659 120.234 -8.37509 204.441 33.2791 197.987C24.0553 229.461 58.7475 262.918 146.124 232.08C147.153 224.968 149.294 218.056 152.469 211.59C159.975 196.569 172.665 187.22 188.748 184.63C168.905 169.797 119.466 137.527 54.0181 129.452Z" fill="#050505"/>
<path d="M342.352 129.452C276.903 137.527 227.421 169.797 207.622 184.63C223.778 187.22 236.41 196.569 243.9 211.59C247.082 218.054 249.223 224.967 250.245 232.08C337.622 262.918 372.314 229.461 363.105 197.987C404.745 204.441 416.95 120.234 342.352 129.452Z" fill="#050505"/>
<path d="M220.547 319.543C218.241 323.667 215.744 327.82 213.027 332.046H183.343C180.626 327.82 178.129 323.667 175.838 319.543H220.547Z" fill="#050505"/>
<path d="M233.692 291.31C232.15 295.405 230.432 299.559 228.508 303.813H167.877C165.953 299.559 164.22 295.405 162.692 291.31H233.692Z" fill="#050505"/>
<path d="M241.3 263.077C240.654 267.144 239.832 271.297 238.671 275.58H157.698C156.611 271.239 155.715 267.144 155.084 263.077H241.3Z" fill="#050505"/>
<path d="M242.74 247.347H153.644C153.531 243.169 153.752 238.988 154.305 234.844H242.064C242.616 238.989 242.842 243.169 242.74 247.347V247.347Z" fill="#050505"/>
<path d="M238.099 219.114H158.271C160.031 214.59 162.51 210.369 165.615 206.612H230.74C233.856 210.365 236.34 214.586 238.099 219.114V219.114Z" fill="#050505"/>
<g style="mix-blend-mode:overlay">
<path d="M242.813 247.347C242.71 252.619 242.219 257.876 241.345 263.077C240.698 267.144 239.802 271.297 238.715 275.58C237.379 280.688 235.704 285.912 233.722 291.31C232.253 295.405 230.461 299.559 228.552 303.813C226.221 308.974 223.563 314.218 220.576 319.543C218.285 323.667 215.788 327.82 213.071 332.046C208.664 338.949 203.729 345.938 198.222 353V192.184C212.101 192.184 223.191 197.408 230.784 206.655C233.889 210.413 236.368 214.633 238.128 219.158C240.131 224.211 241.464 229.498 242.094 234.888C242.658 239.017 242.898 243.182 242.813 247.347V247.347Z" fill="black"/>
</g>
</svg>
